# xmcd
#
# Track frame offsets:
# 150
# 26912
# 39982
# 59615
# 94030
# 115537
# 129597
# 152665
# 177367
# 192072
# 212440
#
# Disc length: 3201 seconds
#
#
# Revision: 0
# Processed by: cddbd v1.5.1PL0 Copyright (c) Steve Scherf et al.
# Submitted via: FreeRIP 2.60 
#
DISCID=8c0c7f0b
DTITLE=Clarence Spady - Nature of the Beast
DYEAR=1994
DGENRE=Blues
TTITLE0=Baby Baby Baby
TTITLE1=Answer to the Man
TTITLE2=Change My Way of Livin
TTITLE3=Nature of the Beast
TTITLE4=Bad Axe
TTITLE5=Gospel Blues
TTITLE6=Built for Comfort
TTITLE7=Picture of Love
TTITLE8=Hi Heeled Sneakers
TTITLE9=Blues Walk
TTITLE10=Just About Us
EXTD=
EXTT0=C. Spady
EXTT1=C. Spady
EXTT2=K. Neal
EXTT3=C. Spady
EXTT4=S. Seals
EXTT5=T. Hamilton
EXTT6=H. Wolf
EXTT7=C. Spady
EXTT8=R. Higganbotham
EXTT9=C. Brown
EXTT10=Spady/Hamilton
PLAYORDER=
